<?xml version="1.0" standalone="no"?>
<!DOCTYPE svg PUBLIC "-//W3C//DTD SVG 20010904//EN"
 "http://www.w3.org/TR/2001/REC-SVG-20010904/DTD/svg10.dtd">
<svg version="1.0" xmlns="http://www.w3.org/2000/svg"
 width="400.000000pt" height="375.000000pt" viewBox="0 0 400.000000 375.000000"
 preserveAspectRatio="xMidYMid meet">

<g transform="translate(0.000000,375.000000) scale(0.100000,-0.100000)"
fill="#000000" stroke="none">
<path d="M2271 2740 c-140 -39 -204 -90 -258 -206 -18 -40 -33 -77 -33 -82 0
-4 -26 -19 -57 -32 -77 -31 -184 -102 -243 -161 -51 -51 -103 -147 -115 -212
-4 -20 -11 -40 -16 -42 -4 -3 -32 13 -61 35 -88 67 -213 103 -302 86 -33 -6
-36 -10 -36 -40 0 -39 -56 -155 -100 -208 -17 -21 -59 -54 -93 -74 l-62 -36
-250 0 c-168 0 -239 -3 -215 -9 19 -5 141 -8 271 -7 209 3 239 1 255 -14 11
-9 44 -27 75 -41 52 -23 56 -27 52 -53 -6 -38 20 -161 46 -216 l19 -43 -66 -8
c-37 -4 -216 -8 -399 -10 -214 -1 -324 -5 -310 -11 25 -11 336 -14 621 -6
l189 5 13 -39 c15 -41 78 -126 95 -126 24 0 -12 91 -55 139 l-21 24 23 -6 c12
-3 19 -1 16 4 -3 6 183 8 467 7 l472 -3 18 -52 c24 -70 70 -135 126 -178 74
-56 79 -48 32 51 -17 37 -51 90 -75 120 l-44 53 33 5 c56 9 898 39 1232 44
209 3 310 8 290 14 -16 4 -162 8 -322 7 -161 -1 -294 1 -294 5 -1 3 1 33 5 65
8 71 -8 183 -34 232 l-19 37 312 4 c304 4 313 4 335 -16 44 -39 66 -95 66
-171 1 -38 -2 -83 -6 -100 -7 -28 -6 -27 9 5 37 84 20 190 -43 260 l-36 40
-317 2 c-316 3 -316 3 -276 21 75 36 245 186 245 218 0 13 -4 12 -72 -26 -100
-55 -161 -106 -193 -162 -16 -29 -35 -52 -41 -53 -7 0 -11 20 -11 53 1 59 -17
99 -70 158 -35 39 -36 41 -34 117 2 81 -31 239 -63 300 -15 30 -15 33 9 68
100 148 16 281 -176 278 -37 -1 -78 -8 -94 -16 -26 -14 -33 -14 -70 -1 -24 10
-86 17 -155 19 -93 3 -129 0 -189 -16z m280 0 c64 -12 182 -68 224 -107 78
-72 141 -174 186 -303 17 -49 24 -94 27 -185 4 -134 -9 -205 -58 -311 l-28
-60 -168 -18 c-93 -9 -181 -19 -196 -21 -38 -6 -35 4 14 50 42 41 78 91 78
111 0 6 -12 23 -26 38 -69 69 -233 -14 -280 -142 -10 -26 -19 -48 -20 -50 -1
-2 -29 4 -62 12 -33 9 -63 16 -66 16 -9 0 -6 -180 4 -225 7 -28 8 -3 4 83 -4
82 -2 122 5 122 6 0 12 -21 12 -47 1 -27 5 -95 9 -153 8 -97 8 -93 5 48 -3
144 -3 153 15 147 88 -28 286 -32 447 -10 59 8 178 16 263 18 l155 2 18 -55
c21 -61 34 -257 19 -278 -14 -20 -344 -31 -1178 -39 l-741 -6 -16 49 c-17 53
-37 162 -37 207 0 26 2 27 53 27 135 1 386 45 403 71 3 5 13 9 23 9 11 0 29 9
42 19 23 18 25 18 59 1 47 -24 187 -44 260 -37 31 3 78 14 104 25 44 20 46 23
46 61 0 34 -6 47 -39 80 -21 21 -59 46 -85 56 -40 16 -47 23 -57 59 -16 58
-16 320 -1 376 26 92 78 204 114 245 81 92 301 146 469 115z m599 -1037 c14
-36 24 -92 27 -149 6 -98 0 -144 -20 -144 -9 0 -11 27 -9 107 3 100 -7 165
-33 226 -4 10 -3 17 3 17 6 0 20 -26 32 -57z m-2010 -86 c0 -47 25 -169 45
-219 5 -13 2 -18 -8 -18 -20 0 -54 91 -69 185 -12 78 -8 105 17 105 12 0 15
-12 15 -53z"/>
<path d="M2318 2439 c-44 -25 -9 -139 62 -202 81 -74 165 -89 214 -38 28 29
28 29 11 65 -33 68 -188 186 -245 186 -14 -1 -33 -5 -42 -11z"/>
<path d="M2205 2147 c-4 -12 -2 -34 3 -48 6 -14 8 -45 5 -70 -3 -30 0 -50 11
-64 14 -19 15 -18 6 14 -5 19 -7 45 -4 58 9 33 64 32 98 -2 43 -43 71 -24 58
40 -6 36 -28 42 -56 16 -14 -13 -35 -21 -58 -21 -40 0 -52 17 -50 72 1 34 -6
36 -13 5z"/>
<path d="M1305 2684 c-69 -12 -153 -38 -207 -64 -32 -16 -60 -25 -63 -20 -3 6
-31 17 -61 26 -62 18 -119 12 -128 -12 -10 -25 16 -67 56 -93 l36 -23 -29 -46
c-77 -122 -94 -315 -43 -515 23 -93 28 -79 7 19 -12 55 -18 121 -17 214 0 116
3 142 22 189 66 157 172 246 351 292 106 28 296 28 403 0 85 -22 206 -75 271
-118 64 -43 76 -48 37 -14 -49 42 -201 116 -290 141 -74 21 -276 35 -345 24z"/>
<path d="M891 1844 c0 -11 3 -14 6 -6 3 7 2 16 -1 19 -3 4 -6 -2 -5 -13z"/>
<path d="M270 1721 c-51 -72 -65 -162 -35 -225 15 -31 95 -118 95 -103 0 3
-13 21 -29 39 -16 18 -39 52 -51 76 -27 52 -24 87 19 178 16 35 28 64 26 64
-2 0 -13 -13 -25 -29z"/>
<path d="M2339 1313 c36 -21 101 -73 146 -115 100 -94 138 -166 133 -250 l-3
-53 -44 -7 c-57 -10 -115 -45 -173 -104 -50 -51 -83 -94 -73 -94 3 0 33 12 68
26 75 32 133 71 182 123 l38 40 29 -44 c16 -25 43 -56 60 -70 32 -27 140 -85
158 -85 6 0 2 17 -9 38 -34 66 -89 120 -156 153 l-65 32 0 51 c-1 62 -16 108
-57 166 l-31 45 127 -3 c134 -4 152 6 47 27 -74 14 -141 14 -167 1 -16 -9 -30
-2 -89 46 -39 31 -70 57 -70 59 0 1 19 -1 43 -6 57 -11 207 -11 207 0 0 5 -15
15 -32 21 -58 22 -122 28 -189 18 -55 -8 -71 -7 -97 6 -58 30 -47 16 17 -21z"/>
<path d="M1356 1311 c-15 -6 -12 -10 20 -23 50 -21 117 -30 161 -22 43 8 29
20 -42 33 -88 17 -120 20 -139 12z"/>
<path d="M1430 1213 c1 -44 93 -186 148 -228 l24 -18 -7 44 c-4 24 -14 59 -21
78 -8 19 -13 36 -11 38 2 2 25 -6 51 -18 26 -11 51 -18 54 -14 13 13 -78 83
-135 103 -97 35 -103 36 -103 15z"/>
<path d="M2450 1108 c-49 -51 -107 -134 -98 -143 6 -6 88 63 116 96 27 33 56
99 43 99 -5 0 -32 -24 -61 -52z"/>
</g>
</svg>
